<svg width="31" height="32" viewBox="0 0 31 32" fill="none" xmlns="http://www.w3.org/2000/svg">
<path fill-rule="evenodd" clip-rule="evenodd" d="M7.0625 2.5C7.0625 1.56802 7.81802 0.8125 8.75 0.8125H29C29.932 0.8125 30.6875 1.56802 30.6875 2.5V22.75C30.6875 23.682 29.932 24.4375 29 24.4375C28.068 24.4375 27.3125 23.682 27.3125 22.75V6.57399L15.5682 18.3182C14.9092 18.9773 13.8408 18.9773 13.1818 18.3182C12.5227 17.6592 12.5227 16.5908 13.1818 15.9318L24.926 4.1875H8.75C7.81802 4.1875 7.0625 3.43198 7.0625 2.5ZM8.81824 22.6818C9.47725 23.3408 9.47725 24.4092 8.81824 25.0682L3.19324 30.6932C2.53423 31.3523 1.46577 31.3523 0.806757 30.6932C0.147748 30.0342 0.147748 28.9658 0.806757 28.3068L6.43176 22.6818C7.09077 22.0227 8.15923 22.0227 8.81824 22.6818Z" fill="black"/>
</svg>
