<svg width="47" height="47" viewBox="0 0 47 47" fill="none" xmlns="http://www.w3.org/2000/svg">
<circle cx="23.0469" cy="23.0469" r="23.0469" fill="url(#paint0_linear_1498_1632)"/>
<path fill-rule="evenodd" clip-rule="evenodd" d="M35.5423 15.0927C35.5423 15.3311 35.3491 15.5244 35.1107 15.5244H10.9834C10.745 15.5244 10.5518 15.3311 10.5518 15.0927C10.5518 14.8544 10.745 14.6611 10.9834 14.6611H35.1107C35.3491 14.6611 35.5423 14.8544 35.5423 15.0927Z" fill="white"/>
<path fill-rule="evenodd" clip-rule="evenodd" d="M35.5423 22.6025C35.5423 22.8409 35.3491 23.0341 35.1107 23.0341H10.9834C10.745 23.0341 10.5518 22.8409 10.5518 22.6025C10.5518 22.3641 10.745 22.1709 10.9834 22.1709H35.1107C35.3491 22.1709 35.5423 22.3641 35.5423 22.6025Z" fill="white"/>
<path fill-rule="evenodd" clip-rule="evenodd" d="M35.5423 30.1128C35.5423 30.3511 35.3491 30.5444 35.1107 30.5444H10.9834C10.745 30.5444 10.5518 30.3511 10.5518 30.1128C10.5518 29.8744 10.745 29.6812 10.9834 29.6812H35.1107C35.3491 29.6812 35.5423 29.8744 35.5423 30.1128Z" fill="white"/>
<defs>
<linearGradient id="paint0_linear_1498_1632" x1="15.272" y1="1.87515e-07" x2="29.4334" y2="43.0393" gradientUnits="userSpaceOnUse">
<stop stop-color="#5CC3FD"/>
<stop offset="1" stop-color="#364CA6"/>
</linearGradient>
</defs>
</svg>
