<svg width="57" height="53" viewBox="0 0 57 53" fill="none" xmlns="http://www.w3.org/2000/svg">
<path d="M53.4802 3.92693C49.9536 0.400313 44.4083 -2.46273 38.0186 3.92693L12.1151 29.8286C11.9157 30.0075 9.53165 32.2461 9.44777 35.4931C9.39558 37.4988 10.2176 39.3683 11.8952 41.0459C13.3267 42.4774 15.0397 43.2211 16.844 43.1988C20.1134 43.1596 22.5514 40.6955 22.8161 40.4159L42.3039 20.93C43.0327 20.2012 43.0345 19.0232 42.3039 18.2944C41.575 17.5656 40.397 17.5656 39.6682 18.2944L20.1507 37.8119C19.6865 38.2891 18.2326 39.4597 16.7825 39.4708C15.9884 39.4764 15.2522 39.1279 14.5308 38.4084C13.5988 37.4764 13.1552 36.5631 13.1738 35.6106C13.2055 33.92 14.6743 32.5406 14.6892 32.5239L40.6542 6.56258C43.1743 4.04436 46.3561 2.07229 50.8445 6.56258C52.4886 8.20659 53.3031 9.91025 53.2714 11.6288C53.2174 14.4527 50.9284 16.6 50.9042 16.6224L21.7909 45.4094C21.7276 45.4728 18.1283 49.1113 13.7461 49.1411C11.4404 49.156 9.25019 48.142 7.23711 46.1308C-0.371585 38.5221 6.74875 30.9283 7.05444 30.6096L29.4462 8.21591C30.175 7.4871 30.175 6.30908 29.4462 5.5784C28.7156 4.84959 27.5375 4.85146 26.8106 5.5784L4.39084 27.9982C0.890318 31.6441 -3.52914 40.6358 4.5996 48.7664C7.35454 51.5195 10.4506 52.8988 13.802 52.8671C19.7629 52.815 24.2551 48.224 24.4434 48.0283L53.4727 19.3233C53.5547 19.2506 56.8875 16.1806 56.9975 11.7481C57.0664 8.95963 55.8828 6.32772 53.4802 3.92693Z" fill="white"/>
</svg>
