<svg width="45" height="37" viewBox="0 0 45 37" fill="none" xmlns="http://www.w3.org/2000/svg">
<path d="M40.6451 0.610927C40.6451 0.610927 44.6923 -0.967197 44.355 2.8654C44.2426 4.44354 43.2308 9.96698 42.4439 15.9414L39.7457 33.639C39.7457 33.639 39.5209 36.2316 37.4973 36.6825C35.4736 37.1333 32.4383 35.1044 31.8761 34.6534C31.4265 34.3153 23.4446 29.2427 20.634 26.7628C19.847 26.0865 18.9476 24.7337 20.7464 23.1556L32.5507 11.8833C33.8998 10.5306 35.2489 7.37437 29.6277 11.207L13.8886 21.9157C13.8886 21.9157 12.0899 23.0429 8.71729 22.0284L1.40981 19.774C1.40981 19.774 -1.28832 18.0831 3.32099 16.3922C14.5632 11.0942 28.3911 5.68344 40.6451 0.610927Z" fill="white"/>
</svg>
