<svg width="50" height="50" viewBox="0 0 50 50" fill="none" xmlns="http://www.w3.org/2000/svg">
<path fill-rule="evenodd" clip-rule="evenodd" d="M50 25C50 38.807 38.807 50 25 50C11.1929 50 0 38.807 0 25C0 11.1929 11.1929 0 25 0C38.807 0 50 11.1929 50 25ZM25.8958 18.4561C23.4643 19.4675 18.6044 21.5607 11.3164 24.736C10.1329 25.2067 9.513 25.6673 9.45658 26.1173C9.3612 26.8783 10.314 27.1777 11.6114 27.5858C11.7879 27.6412 11.9707 27.6987 12.1582 27.7595C13.4346 28.1745 15.1517 28.66 16.0443 28.6792C16.854 28.6967 17.7577 28.363 18.7555 27.6777C25.565 23.0813 29.08 20.758 29.3005 20.7078C29.4562 20.6725 29.672 20.628 29.8183 20.758C29.9645 20.888 29.95 21.134 29.9345 21.2C29.8403 21.6025 26.1003 25.0795 24.1648 26.8787C23.5615 27.4398 23.1335 27.8375 23.046 27.9285C22.85 28.132 22.6503 28.3245 22.4583 28.5095C21.2725 29.6528 20.383 30.51 22.5075 31.91C23.5285 32.5827 24.3453 33.139 25.1603 33.694C26.0503 34.3003 26.938 34.9048 28.0868 35.6577C28.3792 35.8495 28.6588 36.0488 28.931 36.2428C29.9668 36.9813 30.8972 37.6447 32.047 37.5387C32.715 37.4775 33.405 36.8493 33.7555 34.9757C34.5838 30.5483 36.2118 20.955 36.588 17.002C36.621 16.6557 36.5795 16.2125 36.5462 16.0179C36.5127 15.8233 36.4433 15.546 36.1903 15.3408C35.8908 15.0978 35.4285 15.0465 35.2215 15.05C34.2812 15.0668 32.8385 15.5684 25.8958 18.4561Z" fill="white"/>
</svg>
